<?xml version="1.0" encoding="iso-8859-1"?>
<!-- Generator: Adobe Illustrator 19.0.0, SVG Export Plug-In . SVG Version: 6.00 Build 0)  -->
<svg version="1.1" id="Capa_1" xmlns="http://www.w3.org/2000/svg" xmlns:xlink="http://www.w3.org/1999/xlink" x="0px" y="0px"
	 viewBox="0 0 480 480" style="enable-background:new 0 0 480 480;" xml:space="preserve">
<g>
	<g>
		<path d="M455.981,24h-96V8c0-4.418-3.582-8-8-8h-144c-4.418,0-8,3.582-8,8v16h-80c-4.418,0-8,3.582-8,8v136h-16
			c-4.418,0-8,3.582-8,8v32c0,4.418,3.582,8,8,8h8v125.072L22.029,437.92c-9.102,10.819-7.709,26.968,3.11,36.07
			c4.604,3.873,10.425,6.001,16.442,6.01h414.4c4.418,0,8-3.582,8-8V32C463.981,27.582,460.4,24,455.981,24z M215.981,16h128v32
			h-128V16z M103.981,184h64v16h-64V184z M118.085,349.168c1.223-1.444,1.895-3.275,1.896-5.168v-32h16v-16h-16v-16h16v-16h-16v-16
			h16v-16h-16v-16h32v128c0.001,1.893,0.673,3.724,1.896,5.168L183.349,384H88.613L118.085,349.168z M236.564,461.737
			c-1.728,1.462-3.919,2.264-6.183,2.263h-188.8c-5.302-0.04-9.567-4.37-9.528-9.672c0.017-2.22,0.802-4.366,2.224-6.072L47.981,432
			h96v-16h-82.4l13.536-16h121.768l40.8,48.264C241.096,452.294,240.594,458.326,236.564,461.737z M384.821,332.424
			c-0.554,1.111-0.841,2.335-0.84,3.576h-24v16h24v16h-24v16h24v16h-24v16h24v16h-24v16h24v16h-40v-96h-16v96h-73.896
			c3.599-8.786,1.998-18.846-4.152-26.08l-9.952-11.76V312h155.056L384.821,332.424z M447.981,464h-48V337.888l15.2-30.312
			c1.975-3.952,0.372-8.757-3.58-10.732c-1.124-0.562-2.364-0.851-3.62-0.844h-176c-4.418,0-8,3.582-8,8v103.256l-56-66.184V216h8
			c4.418,0,8-3.582,8-8v-32c0-4.418-3.582-8-8-8h-48V40h72v16c0,4.418,3.582,8,8,8h144c4.418,0,8-3.582,8-8V40h88V464z"/>
	</g>
</g>
<g>
	<g>
		<rect x="159.981" y="416" width="16" height="16"/>
	</g>
</g>
<g>
	<g>
		<rect x="327.981" y="336" width="16" height="16"/>
	</g>
</g>
<g>
	<g>
		<path d="M361.869,120l-25.888-12.944V88h-16v19.056l-24,12l-24-12V88h-16v19.056l-27.576,13.784
			c-2.712,1.355-4.425,4.128-4.424,7.16v32h-16v16h22.112l25.888,12.944V208h16v-19.056l24-12l24,12V208h16v-19.056l27.576-13.744
			c2.725-1.362,4.441-4.153,4.424-7.2v-32h16v-16H361.869z M287.981,163.056l-24,12l-24-12v-30.112l24-12l24,12V163.056z
			 M351.981,163.056l-24,12l-24-12v-30.112l24-12l24,12V163.056z"/>
	</g>
</g>
<g>
	<g>
		<rect x="191.981" y="256" width="200" height="16"/>
	</g>
</g>
<g>
	<g>
		<rect x="239.981" y="224" width="184" height="16"/>
	</g>
</g>
<g>
	<g>
		<rect x="207.981" y="224" width="16" height="16"/>
	</g>
</g>
<g>
	<g>
		<rect x="159.981" y="96" width="16" height="16"/>
	</g>
</g>
<g>
	<g>
		<rect x="191.981" y="96" width="16" height="16"/>
	</g>
</g>
<g>
	<g>
		<rect x="375.981" y="80" width="16" height="16"/>
	</g>
</g>
<g>
	<g>
		<rect x="407.981" y="80" width="16" height="16"/>
	</g>
</g>
<g>
</g>
<g>
</g>
<g>
</g>
<g>
</g>
<g>
</g>
<g>
</g>
<g>
</g>
<g>
</g>
<g>
</g>
<g>
</g>
<g>
</g>
<g>
</g>
<g>
</g>
<g>
</g>
<g>
</g>
</svg>
